<svg width="57" height="54" viewBox="0 0 57 54" fill="none" xmlns="http://www.w3.org/2000/svg">
<rect width="57" height="53" transform="translate(0 0.726501)" fill="#CECECE"/>
<path d="M48.9227 38.2742C48.9227 42.0709 45.2291 45.1492 40.75 45.1492C36.2709 45.1492 32.5773 42.0709 32.5773 38.3515C32.5773 34.5548 36.2709 31.5538 40.75 31.5538C41.7194 31.5538 42.6363 31.7188 43.5009 31.9748V19.4538L21.5 25.9765L21.4998 43.8601C21.4227 47.6499 17.8047 50.7265 13.1727 50.7265C8.54062 50.7265 5 47.6499 5 43.8515C5 40.0548 8.69359 37.0538 13.1727 37.0538C14.142 37.0538 15.059 37.2188 15.9227 37.4748V17.5976C15.9227 16.483 16.7872 15.3091 17.8485 14.9748L45.2712 6.85455C45.5711 6.78335 46.018 6.7265 46.25 6.7265C47.7677 6.7265 48.9974 7.95885 49 9.47564L48.9227 38.2742Z" fill="#949494"/>
</svg>
